<svg width="16" height="12" viewBox="0 0 16 12" fill="none" xmlns="http://www.w3.org/2000/svg">
<path fill-rule="evenodd" clip-rule="evenodd" d="M16.2957 0.704347C16.3604 0.768958 16.4118 0.845714 16.4469 0.930218C16.4819 1.01472 16.5 1.10531 16.5 1.1968C16.5 1.28829 16.4819 1.37889 16.4469 1.46339C16.4118 1.54789 16.3604 1.62465 16.2957 1.68926L6.55781 11.4271C6.4932 11.4919 6.41645 11.5433 6.33194 11.5783C6.24744 11.6134 6.15685 11.6314 6.06536 11.6314C5.97387 11.6314 5.88328 11.6134 5.79877 11.5783C5.71427 11.5433 5.63751 11.4919 5.5729 11.4271L0.703982 6.55818C0.573374 6.42757 0.5 6.25043 0.5 6.06572C0.5 5.88102 0.573374 5.70387 0.703982 5.57327C0.83459 5.44266 1.01173 5.36928 1.19644 5.36928C1.38115 5.36928 1.55829 5.44266 1.6889 5.57327L6.06536 9.95112L15.3107 0.704347C15.3754 0.639572 15.4521 0.58818 15.5366 0.553115C15.6211 0.51805 15.7117 0.5 15.8032 0.5C15.8947 0.5 15.9853 0.51805 16.0698 0.553115C16.1543 0.58818 16.231 0.639572 16.2957 0.704347Z" fill="white"/>
</svg>
