<svg width="23" height="24" viewBox="0 0 23 24" fill="none" xmlns="http://www.w3.org/2000/svg">
<path d="M17.8481 12.8517C17.7367 12.7402 17.6045 12.6517 17.4589 12.5913C17.3133 12.531 17.1573 12.4999 16.9997 12.4999C16.8421 12.4999 16.686 12.531 16.5405 12.5913C16.3949 12.6517 16.2626 12.7402 16.1513 12.8517L14.2385 14.7645C13.3517 14.5005 11.6969 13.9005 10.6482 12.8517C9.59937 11.8029 8.99938 10.1481 8.73538 9.26135L10.6482 7.34857C10.7597 7.23723 10.8482 7.10498 10.9085 6.95941C10.9689 6.81383 11 6.65778 11 6.50018C11 6.34258 10.9689 6.18653 10.9085 6.04095C10.8482 5.89538 10.7597 5.76313 10.6482 5.65179L5.84821 0.851838C5.73686 0.740304 5.60462 0.651819 5.45904 0.591447C5.31347 0.531075 5.15741 0.5 4.99982 0.5C4.84222 0.5 4.68616 0.531075 4.54059 0.591447C4.39501 0.651819 4.26277 0.740304 4.15142 0.851838L0.897057 4.10621C0.441061 4.5622 0.184263 5.18859 0.193863 5.82819C0.221463 7.53697 0.673859 13.4721 5.35141 18.1497C10.029 22.8272 15.9641 23.2784 17.6741 23.3072H17.7077C18.3413 23.3072 18.9401 23.0576 19.3937 22.604L22.648 19.3497C22.7596 19.2383 22.8481 19.1061 22.9084 18.9605C22.9688 18.8149 22.9999 18.6589 22.9999 18.5013C22.9999 18.3437 22.9688 18.1876 22.9084 18.042C22.8481 17.8965 22.7596 17.7642 22.648 17.6529L17.8481 12.8517ZM17.6957 20.906C16.1981 20.8808 11.0742 20.4788 7.04819 16.4517C3.00904 12.4125 2.61784 7.27057 2.59384 5.80299L4.99982 3.39701L8.10298 6.50018L6.5514 8.05177C6.41036 8.1927 6.30665 8.36657 6.24967 8.55764C6.19268 8.74872 6.1842 8.95098 6.225 9.14615C6.2538 9.28415 6.9582 12.5565 8.95018 14.5485C10.9422 16.5405 14.2145 17.2449 14.3525 17.2737C14.5476 17.3156 14.75 17.3078 14.9413 17.251C15.1325 17.1942 15.3064 17.0901 15.4469 16.9485L16.9997 15.3969L20.1029 18.5001L17.6957 20.906Z" fill="#00CCA6"/>
</svg>
