<svg width="24" height="21" viewBox="0 0 24 21" fill="none" xmlns="http://www.w3.org/2000/svg">
<path fill-rule="evenodd" clip-rule="evenodd" d="M-0.91875 3.34167C-0.75492 2.6054 -0.352185 1.94802 0.223498 1.47718C0.79918 1.00634 1.51369 0.749949 2.25 0.75H21.75C22.4863 0.749949 23.2008 1.00634 23.7765 1.47718C24.3522 1.94802 24.7549 2.6054 24.9187 3.34167L12 11.44L-0.91875 3.34167ZM-1 5.245V17.085L8.42988 11.155L-1 5.245ZM9.98663 12.1333L-0.689625 18.845C-0.425844 19.4155 -0.00951922 19.8974 0.510895 20.2346C1.03131 20.5719 1.63441 20.7506 2.25 20.75H21.75C22.3655 20.7501 22.9684 20.571 23.4885 20.2335C24.0086 19.8959 24.4246 19.4139 24.688 18.8433L14.0118 12.1317L12 13.3933L9.98663 12.1317V12.1333ZM15.5701 11.1567L25 17.085V5.245L15.5701 11.155V11.1567Z" fill="#00CCA6"/>
</svg>
